<svg width="460" height="460" viewBox="0 0 460 460" fill="none" xmlns="http://www.w3.org/2000/svg">
<path d="M460.001 442C460.001 451.941 451.942 460 442.001 460L258.001 460C248.06 460 240.001 451.941 240.001 442L240.001 378C240.001 368.059 248.06 360 258.001 360L442.001 360C451.942 360 460.001 368.059 460.001 378L460.001 442Z" fill="white"/>
<path d="M460.001 322C460.001 331.941 451.942 340 442.001 340L378.001 340C368.06 340 360.001 331.941 360.001 322L360.001 258C360.001 248.059 368.06 240 378.001 240L442.001 240C451.942 240 460.001 248.059 460.001 258L460.001 322Z" fill="white"/>
<path d="M100.001 202C100.001 211.941 91.942 220 82.0008 220L18.0008 220C8.05972 220 0.000841636 211.941 0.000840767 202L0.000835172 138C0.000834303 128.059 8.05971 120 18.0008 120L82.0008 120C91.942 120 100.001 128.059 100.001 138L100.001 202Z" fill="white"/>
<path d="M460.001 82C460.001 91.9411 451.942 100 442.001 100L378.001 100C368.06 100 360.001 91.9411 360.001 82L360.001 18C360.001 8.05886 368.06 -1.56539e-05 378.001 -1.65229e-05L442.001 -1.93205e-05C451.942 -2.01896e-05 460.001 8.05885 460.001 18L460.001 82Z" fill="white"/>
<path d="M340.001 82C340.001 91.9411 331.942 100 322.001 100L258.001 100C248.06 100 240.001 91.9411 240.001 82L240.001 18C240.001 8.05886 248.06 -1.04085e-05 258.001 -1.12776e-05L322.001 -1.40751e-05C331.942 -1.49442e-05 340.001 8.05886 340.001 18L340.001 82Z" fill="white"/>
<path d="M220.001 82C220.001 91.9411 211.942 100 202.001 100L18.0008 100C8.0597 100 0.000831145 91.9411 0.000830276 82L0.000824681 18C0.000823812 8.05888 8.0597 8.2239e-08 18.0008 -7.86842e-07L202.001 -8.82974e-06C211.942 -9.69882e-06 220.001 8.05887 220.001 18L220.001 82Z" fill="white"/>
<path d="M340.001 322C340.001 331.941 331.942 340 322.001 340L138.001 340C128.06 340 120.001 331.941 120.001 322L120.001 138C120.001 128.059 128.06 120 138.001 120L322.001 120C331.942 120 340.001 128.059 340.001 138L340.001 322Z" fill="white"/>
<path d="M100 441.999C100 451.94 91.9411 459.999 82 459.999L18 459.999C8.05888 459.999 8.12513e-06 451.94 7.25605e-06 441.999L-8.82974e-06 257.999C-9.69882e-06 248.058 8.05887 239.999 18 239.999L82 239.999C91.9411 239.999 100 248.058 100 257.999L100 441.999Z" fill="white"/>
</svg>
